<?xml version="1.0" encoding="UTF-8" standalone="no"?>
<!-- Created with Inkscape (http://www.inkscape.org/) -->

<svg
   xmlns:dc="http://purl.org/dc/elements/1.1/"
   xmlns:cc="http://creativecommons.org/ns#"
   xmlns:rdf="http://www.w3.org/1999/02/22-rdf-syntax-ns#"
   xmlns:svg="http://www.w3.org/2000/svg"
   xmlns="http://www.w3.org/2000/svg"
   xmlns:sodipodi="http://sodipodi.sourceforge.net/DTD/sodipodi-0.dtd"
   xmlns:inkscape="http://www.inkscape.org/namespaces/inkscape"
   width="1000"
   height="999.92206"
   id="svg2"
   version="1.1"
   inkscape:version="0.48.2 r9819"
   sodipodi:docname="New document 1">
  <defs
     id="defs4" />
  <sodipodi:namedview
     id="base"
     pagecolor="#ffffff"
     bordercolor="#666666"
     borderopacity="1.0"
     inkscape:pageopacity="0.0"
     inkscape:pageshadow="2"
     inkscape:zoom="0.24748737"
     inkscape:cx="1390.0643"
     inkscape:cy="112.22322"
     inkscape:document-units="px"
     inkscape:current-layer="layer1"
     showgrid="false"
     fit-margin-left="0.5"
     fit-margin-top="0.5"
     fit-margin-bottom="0.5"
     fit-margin-right="0.5"
     inkscape:window-width="1920"
     inkscape:window-height="1028"
     inkscape:window-x="-8"
     inkscape:window-y="-8"
     inkscape:window-maximized="1">
    <inkscape:grid
       type="xygrid"
       id="grid2996"
       empspacing="5"
       visible="true"
       enabled="true"
       snapvisiblegridlinesonly="true" />
  </sodipodi:namedview>
  <metadata
     id="metadata7">
    <rdf:RDF>
      <cc:Work
         rdf:about="">
        <dc:format>image/svg+xml</dc:format>
        <dc:type
           rdf:resource="http://purl.org/dc/dcmitype/StillImage" />
        <dc:title></dc:title>
      </cc:Work>
    </rdf:RDF>
  </metadata>
  <g
     inkscape:label="Layer 1"
     inkscape:groupmode="layer"
     id="layer1"
     transform="translate(-1198.0714,-63.921733)">
    <g
       id="g3021"
       transform="matrix(0.83176354,0,0,0.83176354,1456.4181,178.89319)">
      <path
         id="path2998"
         d="m 290.625,-137.625 c -301.997374,0 -600.625,237.88785 -600.625,601.40625 0,292.40687 231.621578,599.56255 600.4375,599.56255 307.49772,0 485.09596,-214.25451 541.78125,-340.18755 -15.62298,10.13475 -34.26758,19.125 -65.25,19.125 -65.1543,0 -93.21875,-43.89532 -93.21875,-94.90625 0,-53.48441 32.45284,-95 87.84375,-95 61.76758,0 85.46875,49.22815 85.46875,99 l 0,7.0625 -138.03125,0 c 3.82441,33.77232 27.43728,51.6875 58.8125,51.6875 25.15828,0 46.98127,-13.41515 60,-22.3125 l 11.4375,19.5 C 869.75696,639.8868 891.0625,557.55619 891.0625,463.96875 891.0625,83.473874 575.90259,-137.625 290.625,-137.625 z m 292.0625,688.90625 c 40.67951,0 58.75792,16.71238 78.75,36.625 L 636.875,611.125 c -12.27258,-12.93818 -26.99857,-26.875 -54.71875,-26.875 -34.23389,0 -57.34375,25.98952 -57.34375,61.3125 0,38.44062 19.98511,63.9375 59.28125,63.9375 26.67602,0 49.24495,-16.7119 60.375,-25.96875 l 18.65625,26.875 c -14.0145,12.77457 -40.59343,32.03125 -80.28125,32.03125 -62.15732,0 -93.28125,-43.13737 -93.28125,-94.53125 0,-53.63746 35.25873,-96.625 93.125,-96.625 z M -5.71875,552 c 43.501966,0 56.424976,14.84417 70.625,37.15625 l -28.84375,17.3125 c -8.958333,-15.10006 -17.18483,-22.3125 -43.46875,-22.3125 -19.117871,0 -31.625,6.23112 -31.625,17.9375 0,33.60948 106.09375,17.79558 106.09375,87.5 0,39.12686 -32.389306,53.84375 -74.65625,53.84375 -47.412251,0 -66.27487,-19.08931 -76.5,-38.65625 l 26.3125,-22.0625 c 9.701577,15.53715 15.344142,27.5 51.1875,27.5 22.943433,0 39.53125,-4.77691 39.53125,-18.9375 0,-39.3464 -106.5,-21.18064 -106.5,-88.03125 0,-33.16721 24.434248,-51.25 67.84375,-51.25 z m 389.28125,1.25 c 52.33072,0 83.59375,35.43622 83.59375,79.8125 l 0,107.34375 -30.375,0 -1.96875,-7.875 c -15.84686,6.04978 -31.57006,10.375 -52.40625,10.375 -59.29259,0 -92.6875,-38.38133 -92.6875,-91.875 0,-55.67011 36.68801,-97.78125 93.84375,-97.78125 z M 177.5,553.78125 c 51.24724,0 89.5625,31.80298 89.5625,93.5 0,41.64604 -22.91982,95.09375 -93.9375,95.09375 -22.85158,0 -41.137,-5.94231 -50.125,-9.375 l 0,69.8125 -34.0625,0 0,-166.78125 c 0,-46.53076 31.20538,-82.25 88.5625,-82.25 z m 207.0625,32.25 c -42.09661,0 -60.53125,32.55083 -60.53125,64.28125 0,39.26775 24.09292,59.5625 59.8125,59.5625 19.09167,0 40.28387,-8.03985 48.375,-11.4375 l 0,-63.40625 c 0,-30.70286 -17.87196,-49 -47.65625,-49 z m -207.5,0.78125 C 139.65125,586.8125 123,608.62492 123,637.375 l 0,60.53125 c 10.56224,4.47974 28.54602,11.6875 51.28125,11.6875 32.23042,0 57.6875,-18.1765 57.6875,-62.59375 0,-39.58674 -23.65733,-60.1875 -54.90625,-60.1875 z"
         style="fill:#00afdc;fill-opacity:1;stroke:none"
         inkscape:connector-curvature="0" />
      <path
         sodipodi:nodetypes="cccc"
         inkscape:connector-curvature="0"
         id="path3000"
         d="m 710.71428,625.84432 98.66072,0 c -2.1264,-17.08891 -15.82933,-40.625 -47.14286,-40.625 -31.44953,0 -48.45207,21.64884 -51.51786,40.625 z"
         style="fill:#00afdc;fill-opacity:1;stroke:none" />
    </g>
  </g>
</svg>
